<?xml version="1.0" standalone="no"?>
<!DOCTYPE svg PUBLIC "-//W3C//DTD SVG 20010904//EN"
 "http://www.w3.org/TR/2001/REC-SVG-20010904/DTD/svg10.dtd">
<svg version="1.0" xmlns="http://www.w3.org/2000/svg"
 width="1080.000000pt" height="1080.000000pt" viewBox="0 0 1080.000000 1080.000000"
 preserveAspectRatio="xMidYMid meet">
<metadata>
Created by potrace 1.11, written by Peter Selinger 2001-2013
</metadata>
<g transform="translate(0.000000,1080.000000) scale(0.100000,-0.100000)"
fill="#000000" stroke="none">
<path d="M5680 5925 l0 -1715 -1655 0 -1655 0 0 -805 0 -805 3125 0 3125 0 0
750 0 750 300 0 300 0 0 1770 0 1770 -1770 0 -1770 0 0 -1715z m2240 1370
c229 -36 377 -86 537 -181 118 -70 253 -184 253 -213 0 -17 -159 -181 -175
-181 -5 0 -36 22 -67 49 -136 117 -268 184 -463 238 -92 25 -115 27 -290 27
-260 1 -393 -29 -590 -133 -419 -220 -648 -645 -605 -1125 31 -346 182 -624
445 -821 150 -113 320 -186 507 -220 139 -25 417 -17 537 15 183 49 318 118
454 234 37 31 70 56 74 56 16 0 173 -165 173 -182 0 -18 -125 -129 -206 -183
-214 -143 -507 -225 -799 -225 -409 0 -782 138 -1046 388 -289 272 -439 637
-439 1065 1 236 53 448 162 658 211 405 631 683 1118 738 123 14 318 12 420
-4z m-2240 -3160 l0 -35 1455 0 1455 0 0 -735 0 -735 -3092 2 -3093 3 -3 768
-2 767 1640 0 1640 0 0 -35z"/>
<path d="M5778 3659 c-24 -14 -24 -71 0 -92 42 -38 132 -8 132 43 0 48 -82 79
-132 49z"/>
<path d="M3112 3650 c-53 -12 -109 -58 -134 -109 -19 -37 -23 -63 -23 -131 0
-75 3 -91 28 -132 39 -67 98 -100 192 -106 43 -3 87 0 109 8 71 23 126 88 126
150 0 29 -1 30 -48 30 -45 0 -48 -2 -57 -32 -20 -65 -103 -76 -132 -18 -16 32
-16 178 0 210 10 20 21 26 54 28 45 3 73 -16 73 -49 0 -16 7 -19 55 -19 l55 0
0 85 0 85 -49 0 c-27 0 -51 -4 -53 -10 -2 -6 -19 -4 -43 5 -43 15 -101 17
-153 5z"/>
<path d="M4180 3601 c0 -40 3 -50 20 -54 12 -3 20 -14 20 -26 0 -24 -6 -25
-40 -6 -34 19 -112 19 -154 -1 -51 -25 -76 -77 -76 -160 0 -112 43 -171 132
-181 52 -6 114 18 123 48 10 29 25 22 25 -11 l0 -30 105 0 105 0 0 59 c0 54
-2 60 -22 63 -23 3 -23 5 -26 176 l-2 172 -105 0 -105 0 0 -49z m24 -167 c12
-5 16 -21 16 -73 0 -74 -10 -91 -52 -91 -34 0 -48 24 -48 82 0 69 33 101 84
82z"/>
<path d="M4930 3598 c0 -43 4 -56 25 -73 16 -13 42 -68 79 -165 30 -80 58
-153 61 -162 6 -15 20 -18 75 -18 l67 0 16 43 c8 23 20 59 27 79 6 21 15 40
19 43 5 2 23 -34 40 -80 l33 -85 67 0 67 0 53 148 c66 179 75 199 101 207 17
5 20 15 20 61 l0 54 -90 0 -90 0 0 -54 c0 -42 4 -56 20 -67 20 -14 20 -15 -7
-102 -14 -48 -30 -84 -34 -80 -4 4 -17 44 -28 88 -18 70 -19 81 -6 91 10 8 15
30 15 68 l0 56 -120 0 -120 0 0 -60 c0 -34 4 -60 10 -60 6 0 15 -11 21 -24 9
-19 7 -39 -11 -96 -12 -39 -26 -68 -30 -63 -9 10 -50 145 -50 166 0 8 7 17 15
21 11 4 15 21 15 61 l0 55 -130 0 -130 0 0 -52z"/>
<path d="M6110 3635 c0 -34 -36 -88 -72 -106 -35 -18 -38 -23 -38 -64 0 -38 3
-44 23 -47 21 -3 22 -9 27 -101 5 -93 7 -100 33 -123 23 -20 39 -24 88 -24
102 0 136 32 141 134 2 32 -1 50 -9 53 -9 3 -13 -8 -13 -36 0 -30 -5 -43 -19
-51 -40 -21 -51 -3 -51 76 l0 74 45 0 45 0 0 55 0 55 -45 0 -45 0 0 60 0 60
-55 0 c-42 0 -55 -4 -55 -15z"/>
<path d="M6360 3595 c0 -44 4 -56 20 -65 18 -10 20 -21 20 -120 0 -103 -1
-110 -20 -110 -18 0 -20 -7 -20 -60 l0 -60 130 0 130 0 0 60 c0 57 -1 60 -25
60 -23 0 -25 3 -25 49 0 49 17 81 44 81 29 0 36 -25 36 -137 l0 -113 110 0
111 0 -3 58 c-3 50 -6 57 -25 60 -22 3 -23 8 -23 80 0 125 -40 168 -148 160
-40 -4 -59 -11 -80 -31 -33 -32 -47 -35 -32 -8 5 11 10 49 10 85 l0 66 -105 0
-105 0 0 -55z"/>
<path d="M6890 3595 c0 -50 2 -56 25 -65 26 -10 26 -10 23 -117 -3 -103 -4
-108 -25 -111 -21 -3 -23 -9 -23 -63 l0 -59 105 0 105 0 0 59 c0 54 -2 60 -22
63 -21 3 -23 9 -26 71 -2 40 1 66 6 63 5 -3 45 -62 88 -131 l78 -125 93 0 93
0 0 170 0 170 25 10 c23 9 25 15 25 65 l0 55 -100 0 -100 0 0 -56 c0 -47 3
-57 20 -61 17 -5 20 -14 20 -71 0 -39 -4 -62 -9 -56 -8 8 -45 66 -129 202
l-27 42 -122 0 -123 0 0 -55z"/>
<path d="M7480 3598 c0 -48 3 -55 30 -70 30 -17 30 -17 30 -110 0 -100 -4
-114 -35 -119 -17 -4 -20 -13 -23 -62 l-3 -57 136 0 135 0 0 60 c0 47 -3 60
-15 60 -25 0 -20 67 6 80 11 7 22 10 23 8 1 -2 12 -16 24 -32 26 -33 28 -56 7
-56 -12 0 -15 -13 -15 -60 l0 -60 140 0 140 0 0 60 c0 46 -3 60 -14 60 -17 0
-150 166 -143 177 6 10 62 39 100 52 25 10 27 15 27 66 l0 55 -125 0 -125 0 0
-52 c0 -34 6 -58 17 -70 18 -21 16 -24 -39 -57 l-38 -23 0 40 c0 26 5 42 15
46 11 4 15 21 15 61 l0 55 -135 0 -135 0 0 -52z"/>
<path d="M3588 3526 c-90 -32 -122 -77 -123 -171 0 -45 6 -69 23 -97 75 -120
340 -119 402 3 25 48 27 149 4 188 -19 33 -69 68 -115 81 -48 14 -147 12 -191
-4z m134 -83 c14 -13 18 -31 18 -89 0 -67 -2 -75 -25 -90 -23 -15 -27 -15 -50
0 -23 15 -25 23 -25 91 0 54 4 78 16 89 20 21 43 20 66 -1z"/>
<path d="M4593 3529 c-78 -23 -132 -115 -118 -205 14 -97 82 -147 207 -152
115 -6 184 32 204 112 6 25 5 26 -43 26 -43 0 -52 -4 -71 -30 -41 -55 -122
-32 -122 33 l0 27 125 0 c140 0 135 -3 114 75 -14 50 -64 100 -114 114 -47 13
-137 13 -182 0z m141 -91 c27 -38 20 -48 -34 -48 -46 0 -50 2 -50 23 0 48 56
65 84 25z"/>
<path d="M5710 3477 c0 -48 3 -55 25 -65 21 -10 25 -18 25 -57 0 -39 -3 -47
-25 -55 -23 -9 -25 -15 -25 -65 l0 -55 130 0 130 0 0 59 c0 50 -3 59 -20 64
-18 5 -20 14 -20 116 l0 111 -110 0 -110 0 0 -53z"/>
<path d="M3320 7035 l0 -135 55 0 55 0 0 135 0 135 -55 0 -55 0 0 -135z"/>
<path d="M3008 6988 l-46 -20 29 -71 c16 -39 31 -73 34 -75 6 -7 95 30 95 39
0 14 -51 139 -59 143 -3 2 -27 -6 -53 -16z"/>
<path d="M3671 6988 c-5 -13 -19 -47 -30 -77 -12 -29 -20 -55 -19 -56 18 -13
93 -34 99 -28 15 16 59 137 52 143 -5 4 -27 14 -51 24 -42 16 -43 16 -51 -6z"/>
<path d="M2635 6860 l-39 -40 94 -95 95 -95 40 40 40 40 -95 95 -96 95 -39
-40z"/>
<path d="M3977 6802 l-97 -98 38 -37 38 -37 97 98 97 98 -38 37 -38 37 -97
-98z"/>
<path d="M3280 6771 c-250 -34 -458 -214 -541 -466 -32 -98 -32 -269 -1 -370
55 -178 177 -326 332 -401 47 -23 97 -47 113 -53 25 -10 27 -14 27 -71 l0 -60
-86 0 -85 0 3 -287 c3 -286 3 -288 29 -343 37 -80 81 -125 157 -162 58 -29 76
-33 147 -33 67 0 89 5 136 28 74 36 140 108 168 180 20 54 21 76 21 337 l0
280 -80 0 -80 0 0 65 0 64 50 15 c141 42 292 173 364 316 62 121 71 162 71
305 -1 150 -14 208 -77 324 -127 231 -403 368 -668 332z m250 -127 c57 -16
166 -76 210 -116 191 -174 236 -461 107 -688 -17 -30 -58 -81 -91 -115 -105
-104 -234 -157 -385 -156 -238 0 -445 151 -522 379 -29 85 -32 237 -5 323 62
205 251 367 456 392 55 7 170 -2 230 -19z m-100 -1240 l0 -54 -55 0 -55 0 0
54 0 53 55 1 55 0 0 -54z m158 -398 l-3 -234 -30 -44 c-36 -51 -120 -98 -176
-98 -92 0 -185 65 -214 148 -12 35 -15 93 -15 254 l0 208 221 0 220 0 -3 -234z"/>
<path d="M3411 6388 c-7 -19 -95 -264 -177 -491 -13 -37 -13 -38 14 -48 15 -6
39 -13 53 -16 25 -5 27 -1 123 267 54 149 96 273 95 274 -6 4 -89 36 -94 36
-3 0 -9 -10 -14 -22z"/>
<path d="M3026 6221 l-99 -99 99 -106 c54 -58 104 -106 109 -106 6 0 26 16 45
35 l34 35 -67 68 -67 67 67 67 67 68 -34 35 c-19 19 -39 35 -45 35 -6 0 -55
-45 -109 -99z"/>
<path d="M3570 6285 l-34 -35 62 -63 c34 -34 62 -67 62 -72 0 -5 -28 -38 -62
-72 l-63 -63 38 -37 37 -38 105 105 105 105 -102 102 c-57 57 -105 103 -108
103 -4 0 -21 -16 -40 -35z"/>
<path d="M3320 4965 l0 -165 55 0 55 0 0 165 0 165 -55 0 -55 0 0 -165z"/>
<path d="M2505 6484 c-10 -26 -13 -49 -9 -54 5 -5 40 -20 77 -34 62 -23 68
-24 74 -8 3 9 12 32 19 49 7 18 9 35 4 38 -9 6 -138 55 -144 55 -2 0 -11 -21
-21 -46z"/>
<path d="M4145 6503 c-33 -13 -64 -28 -68 -32 -6 -6 15 -81 28 -99 2 -1 36 10
76 27 52 20 73 34 71 45 -5 28 -32 86 -40 85 -4 0 -34 -12 -67 -26z"/>
<path d="M2327 6173 c-4 -3 -7 -28 -7 -55 l0 -48 140 0 140 0 0 55 0 55 -133
0 c-74 0 -137 -3 -140 -7z"/>
<path d="M4150 6125 l0 -55 135 0 135 0 0 55 0 55 -135 0 -135 0 0 -55z"/>
<path d="M2555 5843 c-33 -14 -62 -26 -64 -28 -7 -7 32 -95 43 -95 6 0 41 12
78 26 l67 27 -17 46 c-10 25 -24 47 -32 48 -8 1 -42 -10 -75 -24z"/>
<path d="M4085 5824 c-9 -25 -15 -47 -13 -49 2 -3 36 -18 75 -34 l72 -29 15
39 c9 22 16 46 16 53 0 12 -114 66 -139 66 -4 0 -16 -21 -26 -46z"/>
<path d="M2690 5515 l-95 -95 38 -37 37 -38 97 97 97 98 -34 35 c-19 19 -37
35 -40 35 -3 0 -48 -43 -100 -95z"/>
<path d="M3917 5572 l-37 -38 95 -94 95 -94 40 39 40 39 -92 93 c-51 51 -95
93 -98 93 -3 0 -23 -17 -43 -38z"/>
</g>
</svg>
